<svg width="845" height="173" viewBox="0 0 845 173" fill="none" xmlns="http://www.w3.org/2000/svg">
<path d="M194.165 122H215.426V104.523H237.948C249.639 104.523 258.408 102.281 264.253 97.7964C270.099 93.312 273.022 87.4663 273.022 80.2593C273.022 73.3726 270.039 67.7871 264.073 63.5029C258.147 59.1787 249.559 57.0166 238.308 57.0166H194.165V122ZM215.426 90.1689V72.3916H232.903C239.91 72.4316 244.794 73.2725 247.557 74.9141C250.36 76.5156 251.761 78.4375 251.761 80.6797C251.761 83.3623 250.36 85.6245 247.557 87.4663C244.794 89.2681 239.91 90.1689 232.903 90.1689H215.426ZM275.905 95.2739C275.905 103.722 279.729 110.529 287.376 115.694C295.063 120.859 305.333 123.441 318.186 123.441C330.999 123.441 341.229 120.859 348.876 115.694C356.563 110.529 360.407 103.722 360.407 95.2739V93.3521C360.407 84.9438 356.563 78.1572 348.876 72.9922C341.229 67.7871 330.999 65.1846 318.186 65.1846C305.374 65.1846 295.124 67.7871 287.436 72.9922C279.749 78.1572 275.905 84.9438 275.905 93.3521V95.2739ZM296.625 92.6914C296.625 88.8076 298.447 85.6646 302.09 83.2622C305.774 80.8599 311.119 79.6587 318.126 79.6587C325.173 79.6587 330.518 80.8599 334.162 83.2622C337.845 85.6646 339.687 88.8076 339.687 92.6914V95.8145C339.687 99.7783 337.865 103.001 334.222 105.484C330.578 107.926 325.213 109.147 318.126 109.147C311.119 109.147 305.774 107.926 302.09 105.484C298.447 103.001 296.625 99.7983 296.625 95.8745V92.6914ZM367.734 122H388.334V108.367L446.832 66.9263H419.985L388.334 86.6855V40.4404H367.734V122ZM425.09 122H450.976L409.956 80.0791L395.722 92.6914L425.09 122ZM448.393 95.2139C448.393 103.982 452.077 110.889 459.444 115.934C466.811 120.939 477.261 123.441 490.794 123.441C500.764 123.441 508.692 122.06 514.578 119.297C520.503 116.535 524.748 112.671 527.31 107.706L509.953 103.142C508.271 105.063 505.789 106.565 502.506 107.646C499.223 108.727 495.259 109.268 490.614 109.268C483.327 109.268 477.822 108.066 474.098 105.664C470.415 103.262 468.573 99.8184 468.573 95.334V91.0698C468.573 87.9067 470.314 85.1641 473.798 82.8418C477.321 80.4795 482.306 79.2983 488.752 79.2983C496.24 79.2983 501.325 80.1992 504.007 82.001C506.69 83.7627 508.071 86.145 508.151 89.1479L508.031 88.0669H458.002V98.0967H527.851V92.6914C527.851 84.1631 524.527 77.4565 517.881 72.5718C511.234 67.687 501.765 65.2446 489.473 65.2446C476.941 65.2446 466.951 67.7871 459.504 72.8721C452.097 77.917 448.393 84.7236 448.393 93.292V95.2139ZM530.673 81.7007H584.546V66.9263H530.673V81.7007ZM544.847 104.703C544.847 111.229 546.629 115.954 550.192 118.877C553.756 121.76 558.901 123.201 565.627 123.201C569.832 123.201 573.355 123.021 576.198 122.661C579.041 122.34 581.203 122.02 582.684 121.7V107.886C581.363 108.247 580.042 108.487 578.72 108.607C577.399 108.727 575.998 108.787 574.516 108.787C571.193 108.787 568.771 108.247 567.249 107.166C565.768 106.044 565.027 103.462 565.027 99.418V48.4883H545.448V68.8481L544.847 69.5688V104.703ZM590.732 97.376C590.732 106.665 593.154 113.332 597.999 117.375C602.844 121.419 609.29 123.441 617.338 123.441C624.145 123.441 629.91 122.42 634.635 120.378C639.399 118.296 643.363 115.053 646.526 110.649H646.286L646.526 122H666.946V66.9263H646.346V98.1567C644.144 101.16 641.501 103.662 638.418 105.664C635.375 107.626 631.732 108.607 627.488 108.607C622.363 108.607 618.379 107.526 615.536 105.364C612.733 103.202 611.332 99.478 611.332 94.1929V66.9263H590.732V97.376ZM676.676 122H696.916L697.096 114.012H696.916C699.558 116.815 703.262 119.057 708.026 120.739C712.831 122.38 718.497 123.201 725.023 123.201C734.792 123.201 742.76 120.479 748.926 115.033C755.092 109.588 758.175 102.841 758.175 94.7935V92.8716C758.175 84.8237 755.132 78.2373 749.046 73.1123C743 67.9873 735.093 65.4248 725.323 65.4248C718.757 65.4248 713.191 66.3657 708.627 68.2476C704.062 70.0894 700.259 72.5317 697.216 75.5747V40.5005H676.676V122ZM697.216 100.799V88.0669C698.697 85.8247 701.12 83.8628 704.483 82.1812C707.846 80.4995 711.95 79.6587 716.795 79.6587C723.882 79.6587 729.087 80.9199 732.41 83.4424C735.733 85.9248 737.395 89.248 737.395 93.4121V94.6733C737.395 98.8374 735.733 102.321 732.41 105.124C729.087 107.926 724.022 109.328 717.215 109.328C712.13 109.328 707.906 108.487 704.543 106.805C701.22 105.124 698.777 103.122 697.216 100.799ZM762.86 95.2139C762.86 103.982 766.543 110.889 773.911 115.934C781.278 120.939 791.728 123.441 805.261 123.441C815.231 123.441 823.159 122.06 829.044 119.297C834.97 116.535 839.214 112.671 841.777 107.706L824.42 103.142C822.738 105.063 820.256 106.565 816.973 107.646C813.689 108.727 809.726 109.268 805.081 109.268C797.794 109.268 792.289 108.066 788.565 105.664C784.881 103.262 783.04 99.8184 783.04 95.334V91.0698C783.04 87.9067 784.781 85.1641 788.265 82.8418C791.788 80.4795 796.773 79.2983 803.219 79.2983C810.707 79.2983 815.792 80.1992 818.474 82.001C821.157 83.7627 822.538 86.145 822.618 89.1479L822.498 88.0669H772.469V98.0967H842.317V92.6914C842.317 84.1631 838.994 77.4565 832.348 72.5718C825.701 67.687 816.232 65.2446 803.94 65.2446C791.408 65.2446 781.418 67.7871 773.971 72.8721C766.563 77.917 762.86 84.7236 762.86 93.292V95.2139Z" fill="orange"/>
<path d="M153.5 75.2417C162.167 80.2454 162.167 92.7546 153.5 97.7583L62.75 150.153C54.0833 155.157 43.25 148.902 43.25 138.895V34.1055C43.25 24.0981 54.0833 17.8434 62.75 22.8471L153.5 75.2417Z" fill="orange"/>
</svg>
