<?xml version="1.0" encoding="UTF-8" standalone="no"?>
<!-- Created with Inkscape (http://www.inkscape.org/) -->

<svg
   inkscape:export-ydpi="96"
   inkscape:export-xdpi="96"
   inkscape:export-filename="test.png"
   xml:space="preserve"
   sodipodi:docname="test.svg"
   inkscape:version="1.2.2 (b0a8486541, 2022-12-01)"
   id="svg5"
   version="1.1"
   viewBox="0 0 376.97411 60.910771"
   height="16.115974mm"
   width="99.741066mm"
   xmlns:inkscape="http://www.inkscape.org/namespaces/inkscape"
   xmlns:sodipodi="http://sodipodi.sourceforge.net/DTD/sodipodi-0.dtd"
   xmlns="http://www.w3.org/2000/svg"
   xmlns:svg="http://www.w3.org/2000/svg"><sodipodi:namedview
     id="namedview7"
     pagecolor="#ffffff"
     bordercolor="#000000"
     borderopacity="0.25"
     inkscape:showpageshadow="2"
     inkscape:pageopacity="0.0"
     inkscape:pagecheckerboard="0"
     inkscape:deskcolor="#d1d1d1"
     inkscape:document-units="mm"
     showgrid="false"
     inkscape:zoom="0.99602445"
     inkscape:cx="3076.2297"
     inkscape:cy="395.57262"
     inkscape:window-width="1366"
     inkscape:window-height="695"
     inkscape:window-x="0"
     inkscape:window-y="0"
     inkscape:window-maximized="1"
     inkscape:current-layer="g10697"
     showguides="false" /><defs
     id="defs2" /><g
     inkscape:label="Layer 1"
     inkscape:groupmode="layer"
     id="layer1"
     transform="translate(-2816.2962,-312.58059)"><g
       id="g993"
       transform="matrix(1.3141622,0,0,1.3141622,-179.53607,-382.46212)"><g
         id="g3709"
         transform="matrix(1.1286291,0,0,1.1286291,-209.77235,-62.332797)" /><g
         id="g1113"
         transform="matrix(0.44880392,0,0,0.44880392,134.56053,190.28044)"><g
           id="g4814"
           transform="matrix(1.1286291,0,0,1.1286291,-160.33168,-62.332797)"><text
             xml:space="preserve"
             style="font-size:112.04px;fill:#ffffff;fill-opacity:1;stroke:none;stroke-width:1.33795;stroke-dasharray:none;stroke-opacity:1"
             x="465.73672"
             y="448.20261"
             id="text167"><tspan
               sodipodi:role="line"
               id="tspan165"
               x="465.73672"
               y="448.20261"
               style="font-style:italic;font-variant:normal;font-weight:bold;font-stretch:normal;font-size:112.04px;font-family:Urbanist;-inkscape-font-specification:'Urbanist Bold Italic';fill:#ffffff;fill-opacity:1;stroke:none;stroke-width:1.33795;stroke-dasharray:none;stroke-opacity:1">Poketube</tspan></text><g
             id="g3702"
             transform="matrix(0.79053551,0,0,0.79053551,91.95505,93.12606)"
             style="fill:#ffffff;stroke:#ffffff;stroke-width:3.86781;stroke-dasharray:none;stroke-opacity:1"><path
               sodipodi:type="star"
               style="fill:#ffffff;stroke:#ffffff;stroke-width:5.61679;stroke-dasharray:none;stroke-opacity:1"
               id="path3694"
               inkscape:flatsided="false"
               sodipodi:sides="3"
               sodipodi:cx="313.24533"
               sodipodi:cy="230.91805"
               sodipodi:r1="45.714695"
               sodipodi:r2="91.42939"
               sodipodi:arg1="-2.0943951"
               sodipodi:arg2="-1.0471976"
               inkscape:rounded="0"
               inkscape:randomized="0"
               d="m 290.38798,191.32796 68.57204,-39.59009 1e-5,79.18018 0,79.18017 -68.57205,-39.59009 -68.57204,-39.59008 z"
               inkscape:transform-center-x="15.739916"
               transform="matrix(-0.68861541,0,0,-0.68861541,586.1132,555.86413)" /></g><text
             xml:space="preserve"
             style="font-style:normal;font-variant:normal;font-weight:bold;font-stretch:normal;font-size:170.118px;font-family:'Manrope ExtraLight';-inkscape-font-specification:'Manrope ExtraLight,  Bold';fill:#ffffff;stroke-width:1.18546"
             x="1498.2238"
             y="354.64182"
             id="text428"><tspan
               sodipodi:role="line"
               id="tspan426"
               style="stroke-width:1.18547"
               x="1498.2238"
               y="354.64182" /></text></g><g
           id="g10697"
           transform="matrix(1.1286291,0,0,1.1286291,4375.1174,346.91686)"
           inkscape:export-filename="./g10629.svg"
           inkscape:export-xdpi="96"
           inkscape:export-ydpi="96"
           style="fill:#000000"><g
             aria-label="Poketube"
             id="text10687"
             style="font-size:112.04px;fill:#000000;stroke-width:1.33795"><path
               d="m 464.5603,448.20261 11.03594,-78.428 h 28.01001 q 6.38628,0 11.09196,3.19314 4.7617,3.19314 7.05852,8.57106 2.29682,5.37792 1.34448,11.82022 -0.89632,6.61036 -4.81772,11.98828 -3.86538,5.3219 -9.5234,8.51504 -5.602,3.13712 -11.7642,3.13712 h -14.34113 l -4.42558,31.20314 z m 19.99915,-44.87202 h 12.8846 q 2.91304,0 5.48996,-1.45652 2.63294,-1.45652 4.42558,-3.9214 1.79264,-2.46488 2.18478,-5.48996 0.50418,-3.0811 -0.61622,-5.54598 -1.1204,-2.46488 -3.3612,-3.9214 -2.18478,-1.45652 -5.09782,-1.45652 h -12.82858 z"
               style="font-style:italic;font-weight:bold;font-family:Urbanist;-inkscape-font-specification:'Urbanist Bold Italic';fill:#000000"
               id="path13170" /><path
               d="m 546.15048,449.65913 q -7.73076,0 -13.55684,-3.97742 -5.77006,-3.97742 -8.62708,-10.6438 -2.801,-6.7224 -1.6806,-14.8453 0.8403,-6.1622 3.75334,-11.4841 2.96906,-5.37792 7.39464,-9.41136 4.42558,-4.08946 9.8035,-6.38628 5.43394,-2.29682 11.204,-2.29682 7.73077,0 13.50083,3.97742 5.82608,3.97742 8.6831,10.69982 2.85702,6.7224 1.6806,14.90132 -0.8403,6.10618 -3.80936,11.42808 -2.91304,5.3219 -7.33862,9.41136 -4.42558,4.03344 -9.80351,6.33026 -5.37792,2.29682 -11.204,2.29682 z m 1.90468,-13.66888 q 4.08946,0 7.61872,-2.18478 3.52927,-2.18478 5.93813,-5.77006 2.46488,-3.58528 3.02508,-7.8428 0.61622,-4.36956 -0.8403,-7.95484 -1.45652,-3.6413 -4.42558,-5.77006 -2.91305,-2.18478 -6.83445,-2.18478 -4.03344,0 -7.61872,2.18478 -3.52926,2.18478 -5.93812,5.82608 -2.40886,3.6413 -3.02508,7.89882 -0.61622,4.42558 0.8403,8.01086 1.45652,3.58528 4.42558,5.71404 2.96906,2.07274 6.83444,2.07274 z"
               style="font-style:italic;font-weight:bold;font-family:Urbanist;-inkscape-font-specification:'Urbanist Bold Italic';fill:#000000"
               id="path13172" /><path
               d="m 632.28407,448.20261 h -15.74162 l -9.63544,-22.01586 -9.18728,9.35534 -1.79264,12.66052 h -13.66888 l 11.82022,-84.03 h 13.66888 l -7.05852,50.1379 21.67974,-22.1279 h 17.87038 l -22.408,22.91218 z"
               style="font-style:italic;font-weight:bold;font-family:Urbanist;-inkscape-font-specification:'Urbanist Bold Italic';fill:#000000"
               id="path13174" /><path
               d="m 661.89346,449.65913 q -7.73076,0 -13.55684,-3.97742 -5.77006,-3.97742 -8.62708,-10.69982 -2.801,-6.7224 -1.6806,-14.8453 0.8403,-6.10618 3.75334,-11.42808 2.96906,-5.37792 7.39464,-9.41136 4.42558,-4.08946 9.8035,-6.38628 5.43394,-2.29682 11.204,-2.29682 6.55434,0 11.59614,2.801 5.0418,2.74498 8.17892,7.5627 3.19314,4.81772 4.03344,10.97992 0.8403,6.1622 -1.00836,12.8846 h -40.8946 q 0.2801,3.13712 1.73662,5.65802 1.45652,2.46488 3.97742,3.97742 2.5209,1.45652 5.99414,1.51254 3.58528,0.056 6.77842,-1.6806 3.19314,-1.79264 5.54598,-4.81772 l 13.50082,3.24916 q -4.42558,7.45066 -11.87624,12.21236 -7.45066,4.70568 -15.85366,4.70568 z m -8.85116,-35.06852 h 27.56184 q -0.16806,-3.3612 -1.79264,-6.05016 -1.56856,-2.74498 -4.25752,-4.36956 -2.68896,-1.62458 -6.05016,-1.62458 -3.3612,0 -6.49832,1.62458 -3.0811,1.56856 -5.43394,4.31354 -2.29682,2.68896 -3.52926,6.10618 z"
               style="font-style:italic;font-weight:bold;font-family:Urbanist;-inkscape-font-specification:'Urbanist Bold Italic';fill:#000000"
               id="path13176" /><path
               d="m 734.86232,405.85149 h -10.86788 l -5.99414,42.35112 h -13.66888 l 5.99414,-42.35112 h -8.29096 l 1.90468,-13.66888 h 8.29096 l 2.46488,-17.59028 H 728.364 l -2.46488,17.59028 H 736.767 Z"
               style="font-style:italic;font-weight:bold;font-family:Urbanist;-inkscape-font-specification:'Urbanist Bold Italic';fill:#000000"
               id="path13178" /><path
               d="m 739.62399,427.47521 4.98578,-35.2926 h 13.66888 l -4.4816,31.70732 q -0.39214,3.30518 0.8403,6.05016 1.23244,2.68896 3.69732,4.31354 2.5209,1.56856 5.77006,1.56856 3.30518,0 6.21822,-1.56856 2.96906,-1.62458 4.92976,-4.31354 2.01672,-2.74498 2.46488,-6.05016 l 4.4816,-31.70732 h 13.66888 l -7.8428,56.02 h -13.66888 l 0.67224,-5.09782 q -3.30518,3.02508 -7.5627,4.81772 -4.2015,1.73662 -8.73912,1.73662 -6.10618,0 -10.75584,-2.96906 -4.64966,-3.02508 -6.94648,-8.01086 -2.2408,-5.0418 -1.4005,-11.204 z"
               style="font-style:italic;font-weight:bold;font-family:Urbanist;-inkscape-font-specification:'Urbanist Bold Italic';fill:#000000"
               id="path13180" /><path
               d="m 837.40976,390.61405 q 8.17892,0 14.34112,3.97742 6.1622,3.97742 9.18729,10.69982 3.0811,6.66638 1.90468,14.78928 -0.8403,6.10618 -3.9214,11.4841 -3.02509,5.37792 -7.67475,9.46738 -4.64966,4.03344 -10.30768,6.33026 -5.65802,2.29682 -11.82022,2.29682 -5.26588,0 -9.01922,-2.35284 -3.75334,-2.40886 -5.8821,-6.21822 l -1.06438,7.11454 h -13.66888 l 11.82022,-84.03 h 13.66888 l -4.92976,35.0125 q 3.24916,-3.80936 7.67474,-6.1622 4.42558,-2.40886 9.69146,-2.40886 z m -6.55434,45.82436 q 4.36956,0 8.17892,-2.18478 3.86538,-2.2408 6.49832,-5.93812 2.68896,-3.69732 3.30518,-8.23494 0.61622,-4.4816 -1.00836,-8.17892 -1.56856,-3.75334 -4.87374,-5.93812 -3.24916,-2.18478 -7.5627,-2.18478 -4.31354,0 -8.01086,2.2408 -3.6413,2.18478 -6.05016,5.93812 -2.40886,3.69732 -3.02508,8.1229 -0.61622,4.53762 0.78428,8.29096 1.4005,3.69732 4.42558,5.8821 3.02508,2.18478 7.33862,2.18478 z"
               style="font-style:italic;font-weight:bold;font-family:Urbanist;-inkscape-font-specification:'Urbanist Bold Italic';fill:#000000"
               id="path13182" /><path
               d="m 892.30945,449.65913 q -7.73076,0 -13.55684,-3.97742 -5.77006,-3.97742 -8.62708,-10.69982 -2.801,-6.7224 -1.6806,-14.8453 0.8403,-6.10618 3.75334,-11.42808 2.96906,-5.37792 7.39464,-9.41136 4.42558,-4.08946 9.8035,-6.38628 5.43394,-2.29682 11.204,-2.29682 6.55434,0 11.59614,2.801 5.0418,2.74498 8.17892,7.5627 3.19314,4.81772 4.03344,10.97992 0.8403,6.1622 -1.00836,12.8846 h -40.8946 q 0.2801,3.13712 1.73662,5.65802 1.45652,2.46488 3.97742,3.97742 2.5209,1.45652 5.99414,1.51254 3.58528,0.056 6.77842,-1.6806 3.19314,-1.79264 5.54598,-4.81772 l 13.50082,3.24916 q -4.42558,7.45066 -11.87624,12.21236 -7.45066,4.70568 -15.85366,4.70568 z m -8.85116,-35.06852 h 27.56184 q -0.16806,-3.3612 -1.79264,-6.05016 -1.56856,-2.74498 -4.25752,-4.36956 -2.68896,-1.62458 -6.05016,-1.62458 -3.3612,0 -6.49832,1.62458 -3.0811,1.56856 -5.43394,4.31354 -2.29682,2.68896 -3.52926,6.10618 z"
               style="font-style:italic;font-weight:bold;font-family:Urbanist;-inkscape-font-specification:'Urbanist Bold Italic';fill:#000000"
               id="path13184" /></g><g
             id="g10691"
             transform="matrix(0.79053551,0,0,0.79053551,91.95505,93.12606)"
             style="fill:#000000;stroke:#000000;stroke-width:3.86781;stroke-dasharray:none;stroke-opacity:1"><path
               sodipodi:type="star"
               style="fill:#000000;stroke:#000000;stroke-width:5.61679;stroke-dasharray:none;stroke-opacity:1"
               id="path10689"
               inkscape:flatsided="false"
               sodipodi:sides="3"
               sodipodi:cx="313.24533"
               sodipodi:cy="230.91805"
               sodipodi:r1="45.714695"
               sodipodi:r2="91.42939"
               sodipodi:arg1="-2.0943951"
               sodipodi:arg2="-1.0471976"
               inkscape:rounded="0"
               inkscape:randomized="0"
               d="m 290.38798,191.32796 68.57204,-39.59009 1e-5,79.18018 0,79.18017 -68.57205,-39.59009 -68.57204,-39.59008 z"
               inkscape:transform-center-x="15.739916"
               transform="matrix(-0.68861541,0,0,-0.68861541,586.1132,555.86413)" /></g><text
             xml:space="preserve"
             style="font-style:normal;font-variant:normal;font-weight:bold;font-stretch:normal;font-size:170.118px;font-family:'Manrope ExtraLight';-inkscape-font-specification:'Manrope ExtraLight,  Bold';fill:#000000;stroke-width:1.18546"
             x="1498.2238"
             y="354.64182"
             id="text10695"><tspan
               sodipodi:role="line"
               id="tspan10693"
               style="fill:#000000;stroke-width:1.18547"
               x="1498.2238"
               y="354.64182" /></text></g></g></g></g></svg>
