<svg width="498" height="173" viewBox="0 0 498 173" fill="none" xmlns="http://www.w3.org/2000/svg">
<path d="M194.165 122H215.426V104.523H237.948C249.639 104.523 258.408 102.281 264.253 97.7964C270.099 93.312 273.022 87.4663 273.022 80.2593C273.022 73.3726 270.039 67.7871 264.073 63.5029C258.147 59.1787 249.559 57.0166 238.308 57.0166H194.165V122ZM215.426 90.1689V72.3916H232.903C239.91 72.4316 244.794 73.2725 247.557 74.9141C250.36 76.5156 251.761 78.4375 251.761 80.6797C251.761 83.3623 250.36 85.6245 247.557 87.4663C244.794 89.2681 239.91 90.1689 232.903 90.1689H215.426ZM275.244 73.9531H306.655V122H328.216V73.9531H359.506V57.0166H275.244V73.9531Z" fill="white"/>
<path d="M363.127 122H368.295V110.381C368.295 110.076 368.254 109.725 368.172 109.326C368.09 108.916 368.037 108.594 368.014 108.359H368.26C368.33 108.605 368.441 108.928 368.594 109.326C368.758 109.725 368.922 110.076 369.086 110.381L377.277 122H382.691L390.883 110.381C391.047 110.076 391.205 109.742 391.357 109.379C391.51 109.016 391.627 108.676 391.709 108.359H391.973C391.938 108.664 391.879 109.004 391.797 109.379C391.727 109.742 391.691 110.076 391.691 110.381V122H397.422V102.98H389.512L381.197 114.529C381.021 114.822 380.857 115.109 380.705 115.391C380.564 115.66 380.43 115.971 380.301 116.322H380.178C380.049 115.971 379.914 115.66 379.773 115.391C379.633 115.121 379.475 114.834 379.299 114.529L370.967 102.98H363.127V122ZM400.516 113.598C400.516 116.293 401.658 118.449 403.943 120.066C406.24 121.672 409.275 122.475 413.049 122.475C416.811 122.475 419.84 121.672 422.137 120.066C424.434 118.449 425.582 116.293 425.582 113.598V113.018C425.582 110.334 424.434 108.189 422.137 106.584C419.84 104.967 416.811 104.158 413.049 104.158C409.287 104.158 406.258 104.967 403.961 106.584C401.664 108.189 400.516 110.334 400.516 113.018V113.598ZM406.229 112.789C406.229 111.359 406.809 110.246 407.969 109.449C409.141 108.652 410.828 108.254 413.031 108.254C415.246 108.254 416.934 108.652 418.094 109.449C419.266 110.246 419.852 111.359 419.852 112.789V113.826C419.852 115.256 419.271 116.375 418.111 117.184C416.951 117.992 415.258 118.396 413.031 118.396C410.816 118.396 409.129 117.992 407.969 117.184C406.809 116.375 406.229 115.256 406.229 113.826V112.789ZM428.43 122H433.879L433.984 119.521H433.967C434.693 120.365 435.783 121.051 437.236 121.578C438.701 122.094 440.383 122.352 442.281 122.352C445.328 122.352 447.777 121.52 449.629 119.855C451.492 118.191 452.424 116.076 452.424 113.51V112.947C452.424 110.393 451.504 108.307 449.664 106.689C447.824 105.072 445.381 104.264 442.334 104.264C440.424 104.264 438.789 104.527 437.43 105.055C436.082 105.57 434.951 106.268 434.037 107.146V97.4961H428.43V122ZM434.037 115.496V111.154C434.494 110.404 435.256 109.748 436.322 109.186C437.389 108.623 438.701 108.342 440.26 108.342C442.486 108.342 444.115 108.764 445.146 109.607C446.189 110.439 446.711 111.541 446.711 112.912V113.633C446.711 115.004 446.189 116.135 445.146 117.025C444.104 117.904 442.498 118.344 440.33 118.344C438.725 118.344 437.395 118.062 436.34 117.5C435.285 116.938 434.518 116.27 434.037 115.496ZM455.342 122H461.037V104.668H455.342V122ZM454.973 100.186C454.973 101.006 455.248 101.703 455.799 102.277C456.35 102.852 457.141 103.139 458.172 103.139C459.215 103.139 460.012 102.857 460.562 102.295C461.125 101.721 461.406 101.018 461.406 100.186C461.406 99.3535 461.131 98.6621 460.58 98.1113C460.029 97.5488 459.238 97.2676 458.207 97.2676C457.164 97.2676 456.361 97.5488 455.799 98.1113C455.248 98.6738 454.973 99.3652 454.973 100.186ZM464.834 122H470.494V97.4961H464.834V122ZM473.395 113.58C473.395 116.299 474.496 118.461 476.699 120.066C478.914 121.672 482.02 122.475 486.016 122.475C488.734 122.475 490.984 122.088 492.766 121.314C494.559 120.541 495.836 119.516 496.598 118.238L492.238 116.322C491.652 116.932 490.826 117.441 489.76 117.852C488.693 118.262 487.422 118.467 485.945 118.467C483.602 118.467 481.838 118.051 480.654 117.219C479.482 116.375 478.896 115.215 478.896 113.738V112.561C478.896 111.248 479.453 110.176 480.566 109.344C481.691 108.512 483.279 108.096 485.33 108.096C487.627 108.096 489.215 108.418 490.094 109.062C490.973 109.707 491.418 110.545 491.43 111.576L491.395 111.418H476.418V114.512H496.879V112.771C496.879 110.088 495.883 107.984 493.891 106.461C491.91 104.926 489.115 104.158 485.506 104.158C481.885 104.158 478.961 104.967 476.734 106.584C474.508 108.189 473.395 110.334 473.395 113.018V113.58Z" fill="white"/>
<path d="M153.5 75.2417C162.167 80.2454 162.167 92.7546 153.5 97.7583L62.75 150.153C54.0833 155.157 43.25 148.902 43.25 138.895V34.1055C43.25 24.0981 54.0833 17.8434 62.75 22.8471L153.5 75.2417Z" fill="white"/>
</svg>
