<?xml version="1.0" encoding="UTF-8" standalone="no"?>
<!-- Created with Inkscape (http://www.inkscape.org/) -->

<svg
   width="717.97009"
   height="112.56479"
   viewBox="0 0 717.97009 112.56479"
   version="1.1"
   id="svg5"
   inkscape:version="1.2.2 (b0a8486541, 2022-12-01)"
   sodipodi:docname="drawing-1.svg"
   xml:space="preserve"
   inkscape:export-filename="draw2ing.svg"
   inkscape:export-xdpi="96"
   inkscape:export-ydpi="96"
   xmlns:inkscape="http://www.inkscape.org/namespaces/inkscape"
   xmlns:sodipodi="http://sodipodi.sourceforge.net/DTD/sodipodi-0.dtd"
   xmlns="http://www.w3.org/2000/svg"
   xmlns:svg="http://www.w3.org/2000/svg"><sodipodi:namedview
     id="namedview7"
     pagecolor="#505050"
     bordercolor="#eeeeee"
     borderopacity="1"
     inkscape:showpageshadow="0"
     inkscape:pageopacity="0"
     inkscape:pagecheckerboard="0"
     inkscape:deskcolor="#505050"
     inkscape:document-units="px"
     showgrid="false"
     inkscape:zoom="0.6147115"
     inkscape:cx="774.347"
     inkscape:cy="251.33742"
     inkscape:window-width="1920"
     inkscape:window-height="1008"
     inkscape:window-x="0"
     inkscape:window-y="0"
     inkscape:window-maximized="1"
     inkscape:current-layer="layer1" /><defs
     id="defs2" /><g
     inkscape:label="Layer 1"
     inkscape:groupmode="layer"
     id="layer1"
     transform="translate(-383.8923,-33.717606)"><g
       id="g1157"
       transform="translate(66.5396,-160)"
       inkscape:export-filename="./g1157.svg"
       inkscape:export-xdpi="96"
       inkscape:export-ydpi="96"><g
         aria-label="Poketube"
         transform="scale(0.98720112,1.0129648)"
         id="text976"
         style="font-size:145.641px;font-family:Manrope;-inkscape-font-specification:'Manrope, @wght=800';font-variation-settings:'wght' 800;fill:#ffffff;stroke-width:3.4;stroke-linecap:round;stroke-linejoin:bevel;paint-order:stroke fill markers"><path
           d="m 456.27173,300.46899 14.34564,-101.9487 h 35.09949 q 8.22871,0 14.34563,4.07795 6.11693,4.07795 9.10257,10.99589 2.98564,6.91795 1.74769,15.29231 -1.16513,8.52 -6.18974,15.43795 -5.02462,6.84512 -12.30667,10.92307 -7.20923,4.07795 -15.21948,4.07795 h -19.95282 l -5.82564,41.14358 z m 23.0841,-56.29024 h 18.42359 q 4.29641,0 8.22872,-2.18462 3.9323,-2.18462 6.55384,-5.82564 2.69436,-3.64103 3.34975,-8.22872 0.65538,-4.58769 -1.01949,-8.22871 -1.60205,-3.71385 -4.9518,-5.82564 -3.27692,-2.18462 -7.57333,-2.18462 h -18.42358 z"
           style="font-family:Urbanist;-inkscape-font-specification:'Urbanist, @ital=1.00,wght=600';font-variation-settings:'ital' 1, 'wght' 600"
           id="path4647" /><path
           d="m 560.98952,302.36233 q -10.04923,0 -17.62256,-5.17026 -7.50051,-5.17025 -11.21436,-13.83589 -3.64103,-8.73846 -2.18462,-19.29744 1.09231,-8.01025 4.87898,-14.9282 3.85949,-6.99077 9.6123,-12.23385 5.75282,-5.31589 12.74359,-8.30153 7.06359,-2.98564 14.5641,-2.98564 10.04923,0 17.54974,5.17025 7.57334,5.17026 11.28718,13.90872 3.71385,8.73846 2.18462,19.37025 -1.09231,7.93744 -4.9518,14.85539 -3.78666,6.91794 -9.53948,12.23384 -5.75282,5.24308 -12.74359,8.22872 -6.99077,2.98564 -14.5641,2.98564 z m 2.11179,-15.14667 q 6.04411,0 11.28718,-3.2041 5.24308,-3.2041 8.81128,-8.44718 3.64103,-5.31589 4.44205,-11.50564 0.87385,-6.33538 -1.23795,-11.65128 -2.11179,-5.31589 -6.48102,-8.44718 -4.36923,-3.2041 -10.26769,-3.2041 -5.97128,0 -11.28718,3.2041 -5.24308,3.20411 -8.81128,8.52 -3.5682,5.3159 -4.44205,11.57846 -0.87385,6.48103 1.23795,11.7241 2.18461,5.24308 6.55384,8.37436 4.36923,3.05846 10.19487,3.05846 z"
           style="font-family:Urbanist;-inkscape-font-specification:'Urbanist, @ital=1.00,wght=600';font-variation-settings:'ital' 1, 'wght' 600"
           id="path4649" /><path
           d="m 670.72839,300.46899 h -17.47692 l -13.54461,-30.87589 -13.69026,13.98154 -2.40307,16.89435 h -15.14667 l 15.36513,-109.23075 h 15.14666 l -9.68512,68.81537 31.67692,-32.40512 h 19.80717 l -28.98256,29.63795 z"
           style="font-family:Urbanist;-inkscape-font-specification:'Urbanist, @ital=1.00,wght=600';font-variation-settings:'ital' 1, 'wght' 600"
           id="path4651" /><path
           d="m 710.01342,302.36233 q -10.04923,0 -17.62256,-5.17026 -7.50051,-5.17025 -11.21436,-13.83589 -3.64102,-8.73846 -2.18461,-19.29744 1.09231,-8.01025 4.87897,-14.9282 3.85949,-6.99077 9.61231,-12.23385 5.75282,-5.31589 12.74359,-8.30153 7.06358,-2.98564 14.5641,-2.98564 8.37435,0 14.85538,3.49538 6.48102,3.42256 10.55897,9.53949 4.15077,6.0441 5.3159,13.98153 1.23795,7.86462 -0.94667,16.74872 h -56.07179 q 0.14565,5.02461 2.33026,9.10256 2.18462,4.00513 6.0441,6.33539 3.93231,2.33025 9.24821,2.40307 5.53435,0 10.48615,-2.76718 4.95179,-2.76718 8.52,-7.64615 l 14.85538,3.56821 q -5.75282,9.68512 -15.43795,15.87486 -9.6123,6.11693 -20.53538,6.11693 z m -14.41846,-44.56615 h 41.36205 q 0,-5.24308 -2.33026,-9.46667 -2.33025,-4.29641 -6.4082,-6.7723 -4.07795,-2.54872 -9.32103,-2.54872 -5.17025,0 -9.90358,2.4759 -4.73334,2.47589 -8.22872,6.7723 -3.49539,4.22359 -5.17026,9.53949 z"
           style="font-family:Urbanist;-inkscape-font-specification:'Urbanist, @ital=1.00,wght=600';font-variation-settings:'ital' 1, 'wght' 600"
           id="path4653" /><path
           d="m 804.4598,242.79516 h -15.2923 l -8.22872,57.67383 h -15.14666 l 8.22871,-57.67383 h -11.57846 l 2.1118,-15.14667 h 11.57846 l 3.13128,-22.86564 h 15.14666 l -3.13128,22.86564 h 15.29231 z"
           style="font-family:Urbanist;-inkscape-font-specification:'Urbanist, @ital=1.00,wght=600';font-variation-settings:'ital' 1, 'wght' 600"
           id="path4655" /><path
           d="m 810.28551,273.16131 6.4082,-45.51282 h 15.14667 l -5.89846,41.79897 q -0.65539,4.87897 1.16512,8.8841 1.82052,4.00513 5.46154,6.40821 3.71385,2.33025 8.52,2.33025 4.87898,0 9.24821,-2.33025 4.36923,-2.40308 7.28205,-6.40821 2.91282,-4.00513 3.5682,-8.8841 l 5.82564,-41.79897 h 15.14667 l -10.19488,72.8205 h -15.14666 l 1.09231,-7.86461 q -4.36923,4.51487 -10.26769,7.13641 -5.89846,2.62154 -12.23385,2.62154 -8.08307,0 -14.2,-3.93231 -6.0441,-3.93231 -9.10256,-10.55897 -2.98564,-6.62667 -1.82051,-14.70974 z"
           style="font-family:Urbanist;-inkscape-font-specification:'Urbanist, @ital=1.00,wght=600';font-variation-settings:'ital' 1, 'wght' 600"
           id="path4657" /><path
           d="m 935.49876,225.60952 q 10.63179,0 18.56923,5.17025 8.01025,5.17026 11.94256,13.90872 4.00513,8.66564 2.4759,19.29743 -1.09231,7.93744 -5.09744,14.92821 -3.9323,6.91794 -9.97641,12.23384 -5.97128,5.24308 -13.39897,8.22872 -7.35487,2.98564 -15.2923,2.98564 -7.64616,0 -12.88923,-3.49539 -5.24308,-3.5682 -8.08308,-9.10256 l -1.52923,10.70461 h -15.14666 l 15.36512,-109.23075 h 15.14667 l -6.55385,46.96922 q 4.36923,-5.60717 10.55897,-9.10256 6.26257,-3.49538 13.90872,-3.49538 z m -8.8841,62.04307 q 6.4082,0 12.01538,-3.20411 5.68,-3.2041 9.53949,-8.59282 3.9323,-5.38871 4.80615,-11.86974 0.94667,-6.62666 -1.45641,-12.01538 -2.40308,-5.38872 -7.20923,-8.52 -4.80615,-3.2041 -11.06872,-3.2041 -6.33538,0 -11.57846,3.2041 -5.24307,3.2041 -8.66564,8.59282 -3.42256,5.38872 -4.36923,11.94256 -0.87384,6.55385 1.01949,11.94256 1.96615,5.38872 6.33539,8.59282 4.36923,3.13129 10.63179,3.13129 z"
           style="font-family:Urbanist;-inkscape-font-specification:'Urbanist, @ital=1.00,wght=600';font-variation-settings:'ital' 1, 'wght' 600"
           id="path4659" /><path
           d="m 1006.7901,302.36233 q -10.04923,0 -17.62257,-5.17026 -7.50051,-5.17025 -11.21435,-13.83589 -3.64103,-8.73846 -2.18462,-19.29744 1.09231,-8.01025 4.87897,-14.9282 3.85949,-6.99077 9.61231,-12.23385 5.75282,-5.31589 12.74356,-8.30153 7.0636,-2.98564 14.5641,-2.98564 8.3744,0 14.8554,3.49538 6.481,3.42256 10.559,9.53949 4.1508,6.0441 5.3159,13.98153 1.2379,7.86462 -0.9467,16.74872 h -56.07177 q 0.14564,5.02461 2.33025,9.10256 2.18462,4.00513 6.04411,6.33539 3.93231,2.33025 9.24821,2.40307 5.5343,0 10.4861,-2.76718 4.9518,-2.76718 8.52,-7.64615 l 14.8554,3.56821 q -5.7528,9.68512 -15.4379,15.87486 -9.6123,6.11693 -20.5354,6.11693 z m -14.41847,-44.56615 h 41.36207 q 0,-5.24308 -2.3303,-9.46667 -2.3302,-4.29641 -6.4082,-6.7723 -4.0779,-2.54872 -9.321,-2.54872 -5.1703,0 -9.9036,2.4759 -4.7333,2.47589 -8.22871,6.7723 -3.49538,4.22359 -5.17026,9.53949 z"
           style="font-family:Urbanist;-inkscape-font-specification:'Urbanist, @ital=1.00,wght=600';font-variation-settings:'ital' 1, 'wght' 600"
           id="path4661" /></g><g
         style="fill:#ffffff;fill-opacity:1;stroke-width:0.870784"
         id="g1151"
         transform="matrix(1.14839,0,0,1.14839,288.64294,165.19861)"><path
           fill-rule="evenodd"
           clip-rule="evenodd"
           d="m 39.782,41.7207 c -19.9967,22.5928 -19.0962,79.3023 -0.977,79.3023 12.5877,0 14.4521,-0.235 18.6508,-0.765 1.8451,-0.233 4.1409,-0.523 7.9954,-0.874 11.8103,-1.078 8.7256,-9.687 5.4833,-18.735 -2.1148,-5.9018 -4.2966,-11.9907 -2.4568,-16.2997 1.799,-4.2134 11.2308,-3.267 21.6295,-2.2235 9.5054,0.9538 19.8188,1.9886 25.8488,-0.7624 12.626,-5.7606 11.478,-35.0342 0,-45.4033 C 104.477,25.591 56.0977,23.2867 39.782,41.7207 Z m 43.8584,26.4989 c 4.6659,0 11.377,-1.8662 11.9479,-8.398 0.0288,-0.3298 0.0587,-0.6612 0.0886,-0.9937 0.6497,-7.211 1.3445,-14.924 -7.4412,-17.6686 -11.9479,-3.7324 -17.4623,11.15 -17.4623,18.6623 0,6.5318 8.201,8.398 12.867,8.398 z"
           fill="url(#paint0_linear_9_6)"
           id="path1134"
           style="fill:#ffffff;fill-opacity:1;stroke-width:0.758265" /></g></g></g></svg>
