<svg height="136" fill="none" xmlns="http://www.w3.org/2000/svg" width="454">
<path d="M138.471 107H152.846V81.2261H157.787C163.14 81.2261 167.314 79.1297 170.309 74.937C173.304 70.7443 174.801 63.5381 174.801 53.3184C174.801 43.1361 173.454 35.9111 170.758 31.6436C168.063 27.376 163.926 25.2422 158.349 25.2422H138.471V107ZM152.846 70.1079V37.3711H155.822C157.694 37.3337 158.966 38.2321 159.64 40.0664C160.351 41.9007 160.707 46.4491 160.707 53.7114C160.707 61.7599 160.333 66.5142 159.584 67.9741C158.835 69.3966 157.6 70.1079 155.878 70.1079H152.846ZM177.44 89.5928C177.44 95.6198 179.013 100.187 182.157 103.294C185.339 106.364 189.588 107.898 194.904 107.898C200.294 107.898 204.562 106.364 207.707 103.294C210.889 100.187 212.479 95.6198 212.479 89.5928V71.8486C212.479 66.1211 210.907 61.7599 207.763 58.7651C204.618 55.7703 200.332 54.2729 194.904 54.2729C189.588 54.2729 185.339 55.7703 182.157 58.7651C179.013 61.7599 177.44 66.1211 177.44 71.8486V89.5928ZM191.535 70.8379C191.535 68.3672 191.815 66.8511 192.377 66.2896C192.976 65.728 193.837 65.4473 194.96 65.4473C196.083 65.4473 196.925 65.728 197.487 66.2896C198.086 66.8511 198.385 68.3672 198.385 70.8379V91.8389C198.385 94.4593 198.086 95.9754 197.487 96.3872C196.888 96.7616 196.046 96.9487 194.96 96.9487C193.874 96.9487 193.032 96.7616 192.433 96.3872C191.834 95.9754 191.535 94.4593 191.535 91.8389V70.8379ZM216.129 107H230.28V93.0742L251.955 55.4521H237.636L230.224 70.2202V25.1299H216.129V107ZM238.478 107H253.976L240.387 66.5142L232.189 80.7207L238.478 107ZM253.358 89.5366C253.358 95.7882 254.931 100.411 258.075 103.406C261.257 106.401 265.562 107.898 270.99 107.898C276.755 107.898 281.06 106.364 283.905 103.294C286.788 100.224 288.379 95.8257 288.678 90.0981L274.752 89.7612C274.64 92.756 274.21 94.7401 273.461 95.7134C272.712 96.6867 271.907 97.1733 271.046 97.1733C269.661 97.1733 268.707 96.7054 268.183 95.7695C267.659 94.7962 267.396 93.2988 267.396 91.2773V69.3779C267.396 68.3672 267.659 67.3939 268.183 66.458C268.744 65.5221 269.549 65.0542 270.597 65.0542C272.057 65.0542 273.068 65.3537 273.629 65.9526C274.191 66.5516 274.472 67.7495 274.472 69.5464V75.5547H260.546L260.602 83.6968H287.948V73.3086C287.986 67.2067 286.601 62.5086 283.793 59.2144C281.023 55.9201 276.662 54.2729 270.709 54.2729C265.469 54.2729 261.257 55.8265 258.075 58.9336C254.931 62.0033 253.358 66.3831 253.358 72.0732V89.5366ZM289.857 39.0557H299.516V107H314.115V39.0557H323.717V25.2422H289.857V39.0557ZM320.966 97.7349C320.966 101.291 321.883 103.893 323.717 105.54C325.589 107.15 328.022 107.955 331.017 107.955C334.049 107.955 336.483 107.412 338.317 106.326C340.151 105.203 341.424 104.005 342.135 102.732L342.023 107H356.173V55.4521H342.023V94.6465C341.686 95.5075 341.218 96.1813 340.619 96.668C340.058 97.1172 339.309 97.3418 338.373 97.3418C337.362 97.3418 336.576 97.0985 336.015 96.6118C335.453 96.0877 335.172 95.0208 335.172 93.4111V55.4521H320.966V97.7349ZM360.778 107H374.704L374.647 104.08H374.535C375.508 105.091 376.688 105.952 378.073 106.663C379.495 107.337 381.292 107.674 383.463 107.674C387.282 107.674 390.295 106.139 392.504 103.069C394.713 99.9997 395.817 95.5262 395.817 89.6489V71.624C395.817 65.7842 394.694 61.4792 392.448 58.709C390.202 55.9014 387.263 54.4976 383.632 54.4976C380.974 54.4976 378.915 55.0965 377.455 56.2944C375.995 57.4549 375.078 58.578 374.704 59.6636V25.1299H360.778V107ZM374.928 94.7026V68.7041C375.041 67.5811 375.359 66.7762 375.883 66.2896C376.407 65.7655 377.081 65.5034 377.904 65.5034C378.99 65.5034 379.888 65.9339 380.6 66.7949C381.348 67.6559 381.723 69.0972 381.723 71.1187V91.6704C381.723 93.4299 381.33 94.7401 380.543 95.6011C379.795 96.4621 378.878 96.8926 377.792 96.8926C376.894 96.8926 376.201 96.7616 375.714 96.4995C375.265 96.2 375.003 95.6011 374.928 94.7026ZM399.691 89.5366C399.691 95.7882 401.264 100.411 404.408 103.406C407.59 106.401 411.895 107.898 417.323 107.898C423.088 107.898 427.393 106.364 430.238 103.294C433.121 100.224 434.712 95.8257 435.011 90.0981L421.085 89.7612C420.973 92.756 420.543 94.7401 419.794 95.7134C419.045 96.6867 418.24 97.1733 417.379 97.1733C415.994 97.1733 415.04 96.7054 414.516 95.7695C413.992 94.7962 413.729 93.2988 413.729 91.2773V69.3779C413.729 68.3672 413.992 67.3939 414.516 66.458C415.077 65.5221 415.882 65.0542 416.93 65.0542C418.39 65.0542 419.401 65.3537 419.962 65.9526C420.524 66.5516 420.805 67.7495 420.805 69.5464V75.5547H406.879L406.935 83.6968H434.281V73.3086C434.319 67.2067 432.934 62.5086 430.126 59.2144C427.356 55.9201 422.995 54.2729 417.042 54.2729C411.802 54.2729 407.59 55.8265 404.408 58.9336C401.264 62.0033 399.691 66.3831 399.691 72.0732V89.5366Z" fill="white"/>

</svg>
