<svg width="150" height="150" viewBox="0 0 150 150" fill="none" xmlns="http://www.w3.org/2000/svg">
<circle cx="75" cy="75" r="75" fill="url(#paint0_linear_9_5)"/>
<path fill-rule="evenodd" clip-rule="evenodd" d="M39.782 41.7207C19.7853 64.3135 20.6858 121.023 38.805 121.023C51.3927 121.023 53.2571 120.788 57.4558 120.258C59.3009 120.025 61.5967 119.735 65.4512 119.384C77.2615 118.306 74.1768 109.697 70.9345 100.649C68.8197 94.7472 66.6379 88.6583 68.4777 84.3493C70.2767 80.1359 79.7085 81.0823 90.1072 82.1258C99.6126 83.0796 109.926 84.1144 115.956 81.3634C128.582 75.6028 127.434 46.3292 115.956 35.9601C104.477 25.591 56.0977 23.2867 39.782 41.7207ZM83.6404 68.2196C88.3063 68.2196 95.0174 66.3534 95.5883 59.8216C95.6171 59.4918 95.647 59.1604 95.6769 58.8279C96.3266 51.6169 97.0214 43.9039 88.2357 41.1593C76.2878 37.4269 70.7734 52.3093 70.7734 59.8216C70.7734 66.3534 78.9744 68.2196 83.6404 68.2196Z" fill="url(#paint1_linear_9_5)"/>
<path fill-rule="evenodd" clip-rule="evenodd" d="M39.782 41.7207C19.7853 64.3135 20.6858 121.023 38.805 121.023C51.3927 121.023 53.2571 120.788 57.4558 120.258C59.3009 120.025 61.5967 119.735 65.4512 119.384C77.2615 118.306 74.1768 109.697 70.9345 100.649C68.8197 94.7472 66.6379 88.6583 68.4777 84.3493C70.2767 80.1359 79.7085 81.0823 90.1072 82.1258C99.6126 83.0796 109.926 84.1144 115.956 81.3634C128.582 75.6028 127.434 46.3292 115.956 35.9601C104.477 25.591 56.0977 23.2867 39.782 41.7207ZM83.6404 68.2196C88.3063 68.2196 95.0174 66.3534 95.5883 59.8216C95.6171 59.4918 95.647 59.1604 95.6769 58.8279C96.3266 51.6169 97.0214 43.9039 88.2357 41.1593C76.2878 37.4269 70.7734 52.3093 70.7734 59.8216C70.7734 66.3534 78.9744 68.2196 83.6404 68.2196Z" fill="black"/>
<defs>
<linearGradient id="paint0_linear_9_5" x1="0" y1="0" x2="150" y2="150" gradientUnits="userSpaceOnUse">
<stop stop-color="#8EDDFF"/>
<stop offset="1" stop-color="#EE85FF"/>
</linearGradient>
<linearGradient id="paint1_linear_9_5" x1="25" y1="28" x2="117.781" y2="127.739" gradientUnits="userSpaceOnUse">
<stop stop-color="#8EDDFF"/>
<stop offset="1" stop-color="#EE85FF"/>
</linearGradient>
</defs>
</svg>
